HIERARCHY
ROOT Hips
{
	OFFSET 0.000000 0.000000 0.000000
	CHANNELS 6 Xposition Yposition Zposition Zrotation Yrotation Xrotation 
	JOINT LHipJoint
	{
		OFFSET 0.000000 0.000000 0.000000
		CHANNELS 3 Zrotation Yrotation Xrotation
		JOINT LeftUpLeg
		{
			OFFSET 1.363060 -1.794630 0.839290
			CHANNELS 3 Zrotation Yrotation Xrotation
			JOINT LeftLeg
			{
				OFFSET 2.448110 -6.726130 0.000000
				CHANNELS 3 Zrotation Yrotation Xrotation
				JOINT LeftFoot
				{
					OFFSET 2.562200 -7.039590 0.000000
					CHANNELS 3 Zrotation Yrotation Xrotation
					JOINT LeftToeBase
					{
						OFFSET 0.157640 -0.433110 2.322550
						CHANNELS 3 Zrotation Yrotation Xrotation
						End Site
						{
							OFFSET 0.000000 0.000000 0.000000
						}
					}
				}
			}
		}
	}
	JOINT RHipJoint
	{
		OFFSET 0.000000 0.000000 0.000000
		CHANNELS 3 Zrotation Yrotation Xrotation
		JOINT RightUpLeg
		{
			OFFSET -1.305520 -1.794630 0.839290
			CHANNELS 3 Zrotation Yrotation Xrotation
			JOINT RightLeg
			{
				OFFSET -2.542530 -6.985550 0.000000
				CHANNELS 3 Zrotation Yrotation Xrotation
				JOINT RightFoot
				{
					OFFSET -2.568260 -7.056230 0.000000
					CHANNELS 3 Zrotation Yrotation Xrotation
					JOINT RightToeBase
					{
						OFFSET -0.164730 -0.452590 2.363150
						CHANNELS 3 Zrotation Yrotation Xrotation
						End Site
						{
							OFFSET 0.000000 0.000000 0.000000
						}
					}
				}
			}
		}
	}
}
MOTION
Frames: 22
Frame Time: 0.008333
2.783850 17.110021 1.126678 -40.750062 -60.772708 26.595638 -12.975612 -1.551146 -2.741875 9.187827 3.244270 2.670320 0.503080 1.538028 23.339002 2.110733 12.144973 -11.365535 -0.801400 -0.000000 -37.084100 6.370246 5.698788 -1.627182 8.852409 -28.855860 -68.305259 2.821351 -0.471018 5.449169 -1.375052 -8.279101 16.190443 -3.710700 0.000000 -64.444201
2.772297 17.108984 1.136853 -41.075601 -60.761756 26.447336 -12.994784 -1.444118 -2.643531 9.449055 3.541102 3.132753 0.506291 1.524326 23.039526 2.060896 11.843540 -11.317807 -0.779200 0.000000 -37.215800 6.411678 5.489662 -1.969071 9.514378 -29.212276 -67.111566 2.918236 -0.680461 7.186540 -1.253205 -7.393358 16.257495 -3.277500 0.000000 -63.237200
2.761018 17.110147 1.145599 -41.284804 -60.751401 26.258489 -13.002173 -1.336373 -2.535494 9.616214 3.729057 3.559791 0.510818 1.507328 22.707080 2.026909 11.639422 -11.255439 -0.758200 0.000000 -37.253400 6.479162 5.289944 -2.262832 10.014887 -29.554844 -65.724301 2.977993 -0.824868 8.497043 -1.206084 -7.051897 15.957055 -3.056300 -0.000000 -63.218600
2.750133 17.113149 1.152888 -41.375938 -60.727122 26.013331 -12.999250 -1.225797 -2.414627 9.696856 3.802283 3.951338 0.515823 1.488812 22.355330 2.006604 11.519833 -11.182049 -0.738500 0.000000 -37.208800 6.563536 5.099066 -2.524526 10.420484 -29.923283 -64.240055 3.012337 -0.925507 9.549243 -1.222148 -7.199062 15.335718 -3.018399 0.000000 -64.278300
2.739433 17.117509 1.158576 -41.352101 -60.674557 25.695920 -12.987790 -1.111237 -2.281267 9.707539 3.768383 4.314949 0.520130 1.470754 21.997459 1.995884 11.459315 -11.101052 -0.719700 -0.000001 -37.106499 6.656678 4.916038 -2.772677 10.780560 -30.360256 -62.725130 3.027224 -1.001529 10.484795 -1.292421 -7.761771 14.475781 -3.121100 -0.000001 -66.069700
2.728635 17.122549 1.162518 -41.220767 -60.585166 25.291577 -12.969742 -0.991793 -2.137938 9.667049 3.645198 4.662892 0.522315 1.455020 21.643311 1.989898 11.427767 -11.014424 -0.700800 0.000000 -36.977100 6.752828 4.739563 -3.024692 11.127403 -30.903620 -61.219701 3.025133 -1.068429 11.406437 -1.408071 -8.653066 13.493959 -3.318800 0.000000 -68.159799
2.717245 17.127624 1.164496 -40.989081 -60.458369 24.791304 -12.946042 -0.867353 -1.989353 9.591026 3.460612 5.005116 0.520589 1.442719 21.301531 1.983639 11.394251 -10.924328 -0.681000 0.000001 -36.851701 6.850074 4.568091 -3.291946 11.466368 -31.574146 -59.742407 3.006290 -1.137949 12.380584 -1.559145 -9.782798 12.524056 -3.575100 0.000000 -70.100900
2.704814 17.132189 1.164360 -40.666258 -60.302707 24.195419 -12.916972 -0.738441 -1.841186 9.490571 3.249348 5.346809 0.513179 1.434012 20.977517 1.972709 11.332030 -10.832507 -0.659900 -0.000000 -36.757900 6.950044 4.399884 -3.577904 11.779089 -32.367299 -58.291136 2.970266 -1.216896 13.432554 -1.733451 -11.062355 11.699421 -3.869601 -0.000000 -71.517300
2.691119 17.135725 1.162065 -40.264997 -60.131277 23.513822 -12.882913 -0.606345 -1.698862 9.372971 3.046309 5.684450 0.498595 1.428556 20.678357 1.953671 11.220457 -10.741796 -0.637800 -0.000000 -36.716800 7.056372 4.233739 -3.879153 12.030593 -33.255773 -56.844953 2.917642 -1.306572 14.550323 -1.916943 -12.406518 11.120464 -4.195100 0.000000 -72.140200
2.675712 17.138121 1.157669 -39.793980 -59.971597 22.766867 -12.842202 -0.472915 -1.567873 9.234489 2.891229 6.011429 0.476018 1.423919 20.400249 1.925307 11.053301 -10.652208 -0.614900 0.000000 -36.739100 7.175436 4.068235 -4.180755 12.169864 -34.171157 -55.381963 2.849650 -1.405257 15.717062 -2.097134 -13.740988 10.834450 -4.552100 0.000000 -71.829800
2.658507 17.139343 1.151478 -39.266880 -59.842387 21.982061 -12.794964 -0.340218 -1.450785 9.076140 2.811317 6.312623 0.445444 1.418184 20.146204 1.887250 10.828581 -10.566461 -0.592300 0.000000 -36.830000 7.310827 3.902074 -4.469349 12.167039 -35.051056 -53.878377 2.771409 -1.507787 16.896363 -2.261937 -14.989230 10.815381 -4.929100 0.000000 -70.614401
2.639634 17.139493 1.143913 -38.699603 -59.768149 21.188175 -12.741109 -0.210517 -1.349550 8.893407 2.827885 6.579210 0.407948 1.408953 19.910233 1.841362 10.558461 -10.483963 -0.570200 -0.000000 -36.981800 7.465107 3.733563 -4.730145 12.003612 -35.822608 -52.324009 2.688028 -1.610136 18.073662 -2.402876 -16.086238 10.987162 -5.302601 0.000000 -68.677400
2.619445 17.138844 1.135517 -38.109279 -59.754355 20.410384 -12.683095 -0.084183 -1.261429 8.692644 2.941086 6.799831 0.364947 1.395680 19.695771 1.789548 10.253757 -10.407735 -0.549700 0.000000 -37.186600 7.636183 3.560446 -4.957949 11.699553 -36.455924 -50.721915 2.606210 -1.708935 19.235486 -2.513297 -16.976161 11.238136 -5.633300 -0.000000 -66.359000
2.598257 17.137654 1.126747 -37.509596 -59.813146 19.667545 -12.621882 0.038292 -1.184594 8.470794 3.145613 6.977278 0.318414 1.377384 19.492626 1.735612 9.937851 -10.336017 -0.530800 0.000000 -37.427700 7.821343 3.380227 -5.147548 11.280209 -36.920932 -49.092675 2.529116 -1.804235 20.399140 -2.591338 -17.630197 11.460054 -5.883100 0.000000 -64.056000
2.576375 17.136281 1.117988 -36.913584 -59.945013 18.972034 -12.559288 0.157263 -1.115795 8.229803 3.423996 7.117907 0.270313 1.354363 19.294318 1.683127 9.632336 -10.268264 -0.514000 0.000000 -37.687600 8.015886 3.190675 -5.299732 10.783222 -37.214854 -47.460804 2.458064 -1.897483 21.589235 -2.637847 -18.043232 11.562496 -6.021999 -0.000000 -62.133100
2.554125 17.134878 1.109416 -36.332675 -60.144148 18.328409 -12.496954 0.273118 -1.051957 7.972152 3.752143 7.232515 0.222436 1.327586 19.094386 1.635304 9.356824 -10.204083 -0.499300 0.000000 -37.948600 8.214422 2.990508 -5.419375 10.247510 -37.355871 -45.850092 2.392505 -1.990854 22.831224 -2.655580 -18.229427 11.486976 -6.034601 -0.000000 -60.863900
2.531734 17.133612 1.101090 -35.774404 -60.400073 17.735042 -12.436321 0.386989 -0.989744 7.701719 4.103649 7.333407 0.176151 1.298540 18.888829 1.594530 9.126004 -10.143320 -0.486800 0.000001 -38.195300 8.411966 2.779601 -5.513509 9.705020 -37.375181 -44.276748 2.330783 -2.086343 24.147629 -2.648519 -18.217002 11.203104 -5.920900 0.000000 -60.357600
2.509096 17.132567 1.092853 -35.237340 -60.698892 17.181469 -12.377683 0.499834 -0.926896 7.420490 4.452509 7.434150 0.132227 1.268785 18.674857 1.562343 8.949250 -10.086395 -0.476700 0.000000 -38.414200 8.604669 2.559557 -5.590524 9.175653 -37.313207 -42.747060 2.270645 -2.185155 25.548581 -2.621613 -18.044076 10.712617 -5.696600 -0.000000 -60.597600
2.486142 17.131819 1.084371 -34.711644 -61.022656 16.653084 -12.319877 0.612799 -0.859925 7.126494 4.775119 7.535293 0.090608 1.239381 18.456615 1.539163 8.829103 -10.035436 -0.469200 0.000000 -38.595300 8.790051 2.334093 -5.656186 8.668809 -37.209117 -41.263050 2.208911 -2.286296 27.022275 -2.582527 -17.769550 10.055951 -5.397100 -0.000000 -61.524800
2.462955 17.130901 1.075381 -34.198071 -61.368334 16.130415 -12.263638 0.724194 -0.795017 6.821657 5.060368 7.676087 0.052189 1.212294 18.219013 1.526044 8.772049 -9.986414 -0.463600 0.000000 -38.729400 8.967688 2.106096 -5.721914 8.172941 -37.095063 -39.797250 2.143810 -2.390242 28.566519 -2.534404 -17.420953 9.252905 -5.040200 0.000000 -62.771300
2.439283 17.130066 1.065496 -33.673461 -61.715674 15.600478 -12.206442 0.836448 -0.725389 6.502013 5.297284 7.825755 0.015242 1.187400 17.982016 1.520879 8.764574 -9.944538 -0.460200 -0.000000 -38.815800 9.136824 1.881245 -5.785946 7.689392 -36.994495 -38.352415 2.071473 -2.491864 30.131308 -2.489117 -17.086090 8.391947 -4.682300 0.000001 -64.230100
2.415229 17.129041 1.054457 -33.130696 -62.062174 15.051006 -12.147722 0.948494 -0.654190 6.166252 5.488091 7.992167 -0.020686 1.165165 17.744143 1.522711 8.800457 -9.908376 -0.458700 0.000000 -38.854800 9.298018 1.663321 -5.850601 7.206004 -36.915717 -36.911213 1.989713 -2.588475 31.684917 -2.453681 -16.816660 7.523968 -4.351500 -0.000000 -65.584900
